<svg xmlns="http://www.w3.org/2000/svg" width="64" height="64" fill="#007bff" viewBox="0 0 24 24">
<path d="M19.14,12.94a7.07,7.07,0,0,0,.05-.94,7.07,7.07,0,0,0-.05-.94l2.11-1.65a.5.5,0,0,0,.12-.63l-2-3.46a.5.5,0,0,0-.6-.22l-2.49,1a7,7,0,0,0-1.63-.94l-.38-2.65A.5.5,0,0,0,13.72,2H10.28a.5.5,0,0,0-.5.42L9.4,5.07a7,7,0,0,0-1.63.94l-2.49-1a.5.5,0,0,0-.6.22l-2,3.46a.5.5,0,0,0,.12.63L4.9,11.06a7.07,7.07,0,0,0-.05.94,7.07,7.07,0,0,0,.05.94L2.79,14.59a.5.5,0,0,0-.12.63l2,3.46a.5.5,0,0,0,.6.22l2.49-1a7,7,0,0,0,1.63.94l.38,2.65a.5.5,0,0,0,.5.42h3.44a.5.5,0,0,0,.5-.42l.38-2.65a7,7,0,0,0,1.63-.94l2.49,1a.5.5,0,0,0,.6-.22l2-3.46a.5.5,0,0,0-.12-.63ZM12,15.5A3.5,3.5,0,1,1,15.5,12,3.5,3.5,0,0,1,12,15.5Z"/>
</svg>